<svg xmlns="http://www.w3.org/2000/svg" width="694.033" height="100.758" fill="#f4f2ee" style="isolation:isolate" viewBox="0 0 694.033 100.758"><defs><clipPath id="a"><path d="M0 0h694.033v100.758H0z"/></clipPath></defs><g clip-path="url(#a)"><clipPath id="b"><path d="M0 0v100.758h694.033V0z"/></clipPath><g clip-path="url(#b)"><path d="M274.737 13.614v66.854c0 13.261 8.256 20.278 20.415 20.278 5.811 0 10.95-1.513 12.174-1.906V87.88c-1.078.325-4.581 1.374-9.334 1.374-7.113 0-10.367-4.431-10.367-10.254V41.109h17.892V30.253h-17.892v-7.096c0-6.787-4.043-10.232-9.195-10.232-1.22 0-2.471.236-3.693.689M533.92 39.326v-.288c0-6.787-3.598-10.232-8.749-10.232-1.22 0-2.472.236-3.694.689v69.804h12.882V51.531c3.835-5.187 11.588-11.244 18.392-11.244 7.526 0 11.282 4.875 11.282 11.968v47.044h12.884V51.531c4.442-6.003 11.587-11.244 18.39-11.244 7.527 0 11.284 4.875 11.284 11.968v47.044h12.882V51.532c0-13.007-5.883-22.727-21.812-22.727-9.698 0-16.872 5.202-22.679 11.539-1.949-4.649-6.347-11.539-19.918-11.539-9.197 0-15.959 4.879-21.144 10.521m-45.009-.288c0-6.787-3.817-10.232-8.968-10.232-1.22 0-2.472.236-3.694.689v69.804h12.882V58.48c3.656-8.667 12.308-16.663 23.739-16.663V28.805c-12.217 0-19.213 5.907-23.959 14.675zm-409.948 0c0-6.787-3.817-10.232-8.969-10.232-1.22 0-2.471.236-3.693.689v69.804h12.882V58.48c3.656-8.667 12.307-16.663 23.74-16.663V28.805c-12.219 0-19.215 5.907-23.96 14.675zm298.958 25.029c8.359-9.381 15.763-20.621 21.037-34.341l-11.905-4.352c-7.594 19.948-18.941 33.344-32.649 44.443V1.631h-12.882v97.667h12.882V84.884c4.964-3.534 9.432-7.134 14.241-11.561l11.761 19.893c2.938 4.948 6.849 7.528 12.708 7.528 3.297 0 5.246-1.056 5.971-1.446zm-364.449.637c0-16.068 8.371-24.415 21.046-24.415 9.613 0 15.927 3.603 17.937 4.892 1.579-1.5 2.843-4.116 2.843-6.849 0-4.571-5.4-9.526-21.296-9.526C15.467 28.806 0 41.254 0 64.849c0 23.015 14.052 35.898 32.58 35.898 11.127 0 19.985-3.562 22.572-4.9v-12.8c-2.822 1.934-11.917 6.208-20.445 6.208-12.16 0-21.235-8.326-21.235-24.551m204.05-20.555c-1.574-.946-7.197-3.86-14.329-3.86-11.906 0-20.072 8.264-20.072 25.344 0 15.199 7.637 23.609 24.036 23.609 3.781 0 7.37-.583 10.365-1.481zm12.732 53.098c-2.694.692-10.94 3.511-23.097 3.511-26.577 0-36.834-14.831-36.834-34.757 0-25.187 14.324-37.218 30.546-37.218 8.984 0 15.016 2.796 16.653 3.641V1.631h12.732zM116.989 60.412c.555-10.159 7.124-20.568 21.388-20.568 6.37 0 10.203 3.635 10.203 8.038 0 9.845-17.984 12.53-31.591 12.53m.088 9.994c19.174 0 44.55-2.9 44.55-23.15 0-10.124-8.441-18.452-22.61-18.452-23.917 0-35.429 16.805-35.429 37.053 0 19.414 12.531 34.89 34.887 34.89 12.442 0 21.737-3.385 21.737-10.452 0-3.31-2.135-5.951-2.609-6.419-1.229.816-7.962 5.379-18.355 5.379-14.637 0-20.685-9.478-22.171-18.849m128.905 28.892V30.253h12.883v69.045zm6.513-82.941c-4.487 0-8.251-3.619-8.251-8.106 0-4.488 3.764-8.251 8.251-8.251 4.488 0 8.106 3.763 8.106 8.251a8.09 8.09 0 0 1-8.106 8.106m421.066 63.979c-5.79 5.936-11.659 8.933-19.187 8.933-7.303 0-11.138-4.665-11.138-9.565 0-7.093 5.656-13.053 30.325-15.435zm-14.989-51.531c-16.462 0-22.881 4.429-22.881 9.518 0 3.864 2.257 6.252 2.851 6.833 2.163-1.393 8.301-4.892 18.189-4.892 12.439 0 16.83 5.89 16.83 12.251v1.911c-28.806 3.04-43.57 8.476-43.57 25.702 0 11.725 8.778 20.619 21.227 20.619 12.462 0 19.511-6.495 22.652-9.353v7.905h12.576V52.091c0-15.344-11.083-23.286-27.874-23.286M447.498 80.336c-5.791 5.936-11.66 8.933-19.187 8.933-7.304 0-11.137-4.665-11.137-9.565 0-7.093 5.654-13.053 30.324-15.435zm-14.99-51.531c-16.461 0-22.88 4.429-22.88 9.518 0 3.864 2.256 6.252 2.851 6.833 2.163-1.393 8.301-4.892 18.188-4.892 12.44 0 16.831 5.89 16.831 12.251v1.911c-28.805 3.04-43.571 8.476-43.571 25.702 0 11.725 8.778 20.619 21.227 20.619 12.462 0 19.512-6.495 22.653-9.353v7.905h12.576V52.091c0-15.344-11.083-23.286-27.875-23.286"/></g><clipPath id="c"><path d="M0 0v100.758h694.033V0z"/></clipPath><g clip-path="url(#c)"><path d="M692.41 24.254c0-2.142-.235-4.778-.66-6.991-1.034 1.53-1.765 3.413-2.094 5.155h-.988c-.307-1.742-1.036-3.649-2.073-5.155-.446 2.189-.659 4.825-.659 6.991h-1.646c0-2.707.329-5.908 1.012-8.568h1.458c.894 1.059 1.837 2.777 2.402 4.355.565-1.578 1.506-3.319 2.4-4.355h1.483c.659 2.66.988 5.884.988 8.568zm-14.994-8.568h6.355v1.318h-2.353v7.25h-1.648v-7.25h-2.354z"/></g></g></svg>